<svg width="172" height="50" viewBox="0 0 172 50" fill="none" xmlns="http://www.w3.org/2000/svg">
<g clip-path="url(#clip0_23:300)">
<path d="M1.12209 38.8017V19.6805H24.9959V18.5621H1.12209V1.11812H26.5053V0H0.00396729V39.9198H26.7288V38.8017H1.12242H1.12209ZM48.2546 11.1819L38.3587 24.2091L28.6858 11.1822H27.2322L37.6875 25.048L26.2254 39.9195H27.5674L38.358 25.8859L49.2046 39.9195H50.6023L39.0848 25.0473L49.5959 11.1815H48.2543L48.2546 11.1819ZM53.9573 49.7601V31.8691H54.0691C54.7402 34.4782 56.0634 36.5748 58.0389 38.1591C60.0144 39.743 62.5301 40.5352 65.5865 40.5352C67.562 40.5352 69.314 40.1346 70.8422 39.3332C72.3704 38.5319 73.6469 37.4416 74.6721 36.0624C75.6969 34.6832 76.4798 33.0805 77.0204 31.254C77.5607 29.4279 77.8312 27.5081 77.8312 25.4956C77.8312 23.3336 77.5513 21.3393 76.9922 19.5131C76.4332 17.6866 75.6224 16.1023 74.5603 14.7607C73.4979 13.4188 72.212 12.3748 70.7023 11.6299C69.1929 10.8842 67.4875 10.5114 65.5865 10.5114C64.1328 10.5114 62.7818 10.7258 61.5332 11.1544C60.2845 11.5832 59.1758 12.1886 58.2067 12.9715C57.2319 13.7604 56.3834 14.6936 55.6905 15.7389C54.9825 16.8013 54.4419 17.9661 54.0691 19.2336H53.9573V11.1819H52.8392V49.7601H53.9573V49.7601ZM65.5865 39.4725C62.0832 39.4725 59.2687 38.2705 57.1442 35.8664C55.0197 33.4624 53.9573 30.005 53.9573 25.495C53.9573 23.6312 54.2184 21.8607 54.7402 20.1836C55.262 18.5064 56.0167 17.0339 57.0043 15.7668C57.9922 14.4993 59.213 13.493 60.6664 12.7477C62.1201 12.002 63.7603 11.6292 65.5865 11.6292C67.4503 11.6292 69.0812 12.002 70.4788 12.7477C71.8765 13.493 73.0322 14.5087 73.9452 15.7946C74.8583 17.0805 75.5479 18.553 76.014 20.2114C76.4798 21.8701 76.7127 23.6312 76.7127 25.495C76.7127 27.1725 76.4986 28.8406 76.0697 30.499C75.6412 32.1577 74.9795 33.6487 74.0848 34.9722C73.1905 36.295 72.0446 37.3758 70.6466 38.2148C69.2486 39.0534 67.562 39.4725 65.5865 39.4725V39.4725ZM83.9812 39.9198V23.65C83.9812 22.0846 84.2046 20.556 84.6523 19.0654C85.0993 17.5745 85.7889 16.2604 86.7207 15.1238C87.6526 13.9869 88.8359 13.0923 90.2711 12.4399C91.706 11.7876 93.4114 11.5174 95.3869 11.6292V10.5111C93.6721 10.4742 92.1721 10.6601 90.8862 11.0701C89.5999 11.4802 88.4912 12.0393 87.5593 12.7477C86.6275 13.4557 85.8822 14.2849 85.3231 15.2356C84.7645 16.1847 84.3499 17.2116 84.0929 18.2826H83.9812V11.1819H82.863V39.9201H83.9812V39.9198ZM96.7845 25.7745H120.826C120.901 23.799 120.705 21.8983 120.239 20.0718C119.773 18.2453 119.027 16.6238 118.003 15.2077C116.977 13.7913 115.654 12.6544 114.033 11.797C112.411 10.9396 110.482 10.5111 108.246 10.5111C106.643 10.5111 105.078 10.8466 103.55 11.5178C102.021 12.1886 100.679 13.1668 99.5241 14.4527C98.3687 15.7386 97.4369 17.3134 96.7288 19.1775C96.0207 21.0409 95.6664 23.1654 95.6664 25.551C95.6664 27.6755 95.9087 29.6604 96.3932 31.5054C96.8778 33.3503 97.6231 34.9534 98.6295 36.3138C99.6362 37.6742 100.931 38.7272 102.515 39.4725C104.099 40.2181 106.01 40.5721 108.246 40.5349C111.526 40.5349 114.285 39.6121 116.521 37.7675C118.757 35.9221 120.08 33.3225 120.491 29.9678H119.372C118.888 33.1362 117.648 35.5124 115.654 37.0963C113.66 38.6805 111.154 39.4725 108.134 39.4725C106.084 39.4725 104.351 39.1185 102.935 38.4104C101.518 37.7023 100.363 36.7329 99.4681 35.503C98.5738 34.2728 97.912 32.8285 97.4835 31.1698C97.0546 29.5114 96.8218 27.7128 96.7845 25.7745ZM119.708 24.6564H96.7848C96.8963 22.6436 97.2691 20.8359 97.9026 19.2332C98.5365 17.6302 99.3657 16.2604 100.391 15.1238C101.416 13.9869 102.609 13.1205 103.969 12.5238C105.329 11.9275 106.793 11.6292 108.358 11.6292C110.222 11.6292 111.861 11.9742 113.278 12.6638C114.694 13.3534 115.878 14.2946 116.828 15.4872C117.779 16.6799 118.496 18.0685 118.981 19.6523C119.465 21.2366 119.708 22.9047 119.708 24.6564ZM144.029 19.6805H145.147C145.147 16.4748 144.215 14.1453 142.352 12.6916C140.488 11.2379 137.953 10.5111 134.748 10.5111C132.958 10.5111 131.449 10.7349 130.219 11.1822C128.989 11.6292 127.982 12.207 127.2 12.9151C126.417 13.6232 125.858 14.406 125.522 15.2634C125.187 16.1208 125.019 16.9409 125.019 17.7235C125.019 19.2889 125.299 20.5376 125.858 21.4695C126.417 22.4013 127.293 23.1282 128.486 23.65C129.306 24.0225 130.237 24.3581 131.281 24.6567C132.325 24.9547 133.536 25.2715 134.915 25.6067C136.145 25.9054 137.357 26.2034 138.55 26.5013C139.742 26.7997 140.795 27.2003 141.708 27.7034C142.622 28.2067 143.367 28.8497 143.945 29.6326C144.522 30.4151 144.811 31.4403 144.811 32.7074C144.811 33.9376 144.523 34.9812 143.945 35.8383C143.372 36.6912 142.618 37.4072 141.737 37.9352C140.842 38.4755 139.845 38.8668 138.745 39.1091C137.646 39.3513 136.574 39.4725 135.53 39.4725C132.139 39.4725 129.539 38.7178 127.731 37.2084C125.923 35.6987 125.019 33.3225 125.019 30.0795H123.901C123.901 33.6953 124.879 36.3416 126.836 38.0191C128.793 39.6963 131.691 40.5349 135.53 40.5349C136.76 40.5349 138 40.395 139.249 40.1154C140.497 39.8359 141.615 39.3795 142.603 38.7456C143.582 38.1207 144.405 37.2792 145.007 36.2859C145.622 35.2792 145.93 34.0493 145.93 32.5956C145.93 31.2164 145.659 30.0983 145.119 29.2409C144.578 28.3839 143.87 27.6755 142.994 27.1164C142.118 26.5574 141.131 26.1195 140.031 25.8027C138.925 25.484 137.816 25.1764 136.704 24.8799C135.336 24.5208 133.966 24.1668 132.595 23.8178C131.421 23.5195 130.331 23.1654 129.324 22.7554C128.355 22.3453 127.582 21.7584 127.004 20.9943C126.426 20.2302 126.138 19.1399 126.138 17.7235C126.138 17.4628 126.212 16.9966 126.361 16.3258C126.51 15.6547 126.864 14.9745 127.423 14.2849C127.982 13.5956 128.84 12.9805 129.995 12.4399C131.151 11.8997 132.735 11.6292 134.748 11.6292C136.127 11.6292 137.385 11.7785 138.521 12.0765C139.658 12.3748 140.637 12.85 141.457 13.5023C142.277 14.1547 142.91 14.9839 143.358 15.9903C143.805 16.997 144.029 18.2268 144.029 19.6805V19.6805ZM169.915 19.6805H171.033C171.033 16.4748 170.102 14.1453 168.238 12.6916C166.374 11.2379 163.84 10.5111 160.634 10.5111C158.845 10.5111 157.335 10.7349 156.105 11.1822C154.875 11.6292 153.869 12.207 153.086 12.9151C152.303 13.6232 151.744 14.406 151.409 15.2634C151.073 16.1208 150.906 16.9409 150.906 17.7235C150.906 19.2889 151.185 20.5376 151.745 21.4695C152.303 22.4013 153.179 23.1282 154.372 23.65C155.192 24.0225 156.124 24.3581 157.167 24.6567C158.211 24.9547 159.422 25.2715 160.802 25.6067C162.032 25.9054 163.243 26.2034 164.436 26.5013C165.629 26.7997 166.681 27.2003 167.595 27.7034C168.508 28.2067 169.254 28.8497 169.831 29.6326C170.409 30.4151 170.698 31.4403 170.698 32.7074C170.698 33.9376 170.409 34.9812 169.831 35.8383C169.258 36.6911 168.504 37.4071 167.623 37.9352C166.728 38.4755 165.731 38.8668 164.631 39.1091C163.532 39.3513 162.46 39.4725 161.417 39.4725C158.025 39.4725 155.425 38.7178 153.617 37.2084C151.809 35.6987 150.906 33.3225 150.906 30.0795H149.788C149.788 33.6953 150.766 36.3416 152.723 38.0191C154.679 39.6963 157.577 40.5349 161.417 40.5349C162.647 40.5349 163.886 40.395 165.135 40.1154C166.383 39.8359 167.502 39.3795 168.49 38.7456C169.469 38.1207 170.291 37.2792 170.894 36.2859C171.509 35.2792 171.816 34.0493 171.816 32.5956C171.816 31.2164 171.546 30.0983 171.005 29.2409C170.465 28.3839 169.757 27.6755 168.881 27.1164C168.005 26.5574 167.017 26.1195 165.918 25.8027C164.812 25.484 163.703 25.1764 162.591 24.8799C161.222 24.5208 159.853 24.1668 158.481 23.8178C157.307 23.5195 156.217 23.1654 155.211 22.7554C154.242 22.3453 153.468 21.7584 152.891 20.9943C152.313 20.2302 152.024 19.1399 152.024 17.7235C152.024 17.4628 152.098 16.9966 152.248 16.3258C152.397 15.6547 152.751 14.9745 153.31 14.2849C153.869 13.5956 154.726 12.9805 155.881 12.4399C157.037 11.8997 158.621 11.6292 160.634 11.6292C162.013 11.6292 163.271 11.7785 164.408 12.0765C165.545 12.3748 166.523 12.85 167.343 13.5023C168.163 14.1547 168.797 14.9839 169.244 15.9903C169.692 16.997 169.915 18.2268 169.915 19.6805H169.915Z" fill="#222222"/>
</g>
<defs>
<clipPath id="clip0_23:300">
<rect width="171.82" height="50" fill="white"/>
</clipPath>
</defs>
</svg>
