<svg width="150" height="150" viewBox="0 0 150 150" fill="none" xmlns="http://www.w3.org/2000/svg">
<path d="M100 100C113.807 100 125 88.8071 125 75C125 61.1929 113.807 50 100 50C86.1929 50 75 61.1929 75 75C75 88.8071 86.1929 100 100 100Z" fill="#19BCFE"/>
<path fill-rule="evenodd" clip-rule="evenodd" d="M50 150C56.6304 150 62.9893 147.366 67.6777 142.678C72.3661 137.989 75 131.63 75 125V100H50C43.3696 100 37.0107 102.634 32.3223 107.322C27.6339 112.011 25 118.37 25 125C25 131.63 27.6339 137.989 32.3223 142.678C37.0107 147.366 43.3696 150 50 150Z" fill="#09CF83"/>
<path fill-rule="evenodd" clip-rule="evenodd" d="M50 100H75V50H50C43.3696 50 37.0107 52.6339 32.3223 57.3223C27.6339 62.0107 25 68.3696 25 75C25 81.6304 27.6339 87.9893 32.3223 92.6777C37.0107 97.3661 43.3696 100 50 100Z" fill="#A259FF"/>
<path fill-rule="evenodd" clip-rule="evenodd" d="M50 50H75V0H50C43.3696 0 37.0107 2.63392 32.3223 7.32233C27.6339 12.0107 25 18.3696 25 25C25 31.6304 27.6339 37.9893 32.3223 42.6777C37.0107 47.3661 43.3696 50 50 50Z" fill="#F24E1E"/>
<path fill-rule="evenodd" clip-rule="evenodd" d="M100 50H75V0H100C106.63 0 112.989 2.63392 117.678 7.32233C122.366 12.0107 125 18.3696 125 25C125 31.6304 122.366 37.9893 117.678 42.6777C112.989 47.3661 106.63 50 100 50Z" fill="#FF7262"/>
</svg>
