<svg width="100" height="100" viewBox="0 0 100 100" fill="none" xmlns="http://www.w3.org/2000/svg">
<path d="M87.0002 12.9125C83.946 9.85833 80.271 8.33333 75.971 8.33333H23.9418C19.6418 8.33333 15.9668 9.85833 12.9127 12.9125C9.8585 15.9667 8.3335 19.6417 8.3335 23.9417V75.9708C8.3335 80.2708 9.8585 83.9458 12.9127 87C15.9668 90.0542 19.6418 91.5792 23.9418 91.5792H36.0835C36.8752 91.5792 37.471 91.55 37.871 91.4958C38.3364 91.4025 38.7564 91.1543 39.0627 90.7917C39.4585 90.375 39.6585 89.7708 39.6585 88.9792L39.6293 85.2917C39.6127 82.9417 39.6043 81.0833 39.6043 79.7083L38.3543 79.925C37.5627 80.0708 36.5627 80.1333 35.3502 80.1167C34.0864 80.0933 32.8266 79.9665 31.5835 79.7375C30.2602 79.4932 29.0144 78.936 27.9502 78.1125C26.8356 77.2693 26.0042 76.1066 25.5668 74.7792L25.0252 73.5292C24.5686 72.5431 23.995 71.6156 23.3168 70.7667C22.5418 69.7542 21.7543 69.0708 20.9585 68.7083L20.5835 68.4375C20.322 68.2502 20.0842 68.032 19.8752 67.7875C19.6755 67.5606 19.5112 67.305 19.3877 67.0292C19.2793 66.775 19.371 66.5667 19.6585 66.4042C19.9502 66.2375 20.471 66.1583 21.2335 66.1583L22.3168 66.325C23.0377 66.4667 23.9335 66.9 24.996 67.6208C26.0712 68.3539 26.9694 69.3176 27.6252 70.4417C28.4585 71.9208 29.4585 73.05 30.6335 73.8292C31.8085 74.6042 32.9918 74.9958 34.1835 74.9958C35.3752 74.9958 36.4043 74.9042 37.2752 74.725C38.1173 74.5509 38.9356 74.2767 39.7127 73.9083C40.0377 71.4917 40.921 69.625 42.3668 68.325C40.4934 68.1413 38.6366 67.8154 36.8127 67.35C35.0326 66.861 33.3207 66.1513 31.7168 65.2375C30.0387 64.3239 28.5564 63.0894 27.3543 61.6042C26.2002 60.1583 25.2502 58.2625 24.5085 55.9167C23.771 53.5667 23.4002 50.8542 23.4002 47.7833C23.4002 43.4125 24.8252 39.6917 27.6793 36.6167C26.346 33.3333 26.471 29.6458 28.0585 25.5667C29.1085 25.2375 30.6627 25.4833 32.721 26.2958C34.7793 27.1083 36.2877 27.8042 37.246 28.3792C38.2043 28.9625 38.971 29.45 39.5502 29.8458C42.9376 28.9031 46.4382 28.4293 49.9543 28.4375C53.5335 28.4375 57.0002 28.9083 60.3627 29.8458L62.421 28.5458C64.0043 27.5952 65.6743 26.7972 67.4085 26.1625C69.3252 25.4375 70.7835 25.2417 71.8002 25.5667C73.4252 29.65 73.5668 33.3333 72.2293 36.6208C75.0835 39.6917 76.5127 43.4125 76.5127 47.7875C76.5127 50.8583 76.1418 53.5792 75.4002 55.9417C74.6627 58.3083 73.7043 60.2042 72.5293 61.6333C71.3061 63.0995 69.8176 64.3222 68.1418 65.2375C66.3918 66.2125 64.6918 66.9167 63.046 67.35C61.2221 67.8169 59.3654 68.1442 57.4918 68.3292C59.3668 69.9542 60.3085 72.5167 60.3085 76.0208V88.9792C60.3085 89.5917 60.396 90.0875 60.5793 90.4667C60.6636 90.6493 60.7837 90.8132 60.9326 90.9485C61.0815 91.0838 61.2561 91.1877 61.446 91.2542C61.846 91.3958 62.196 91.4875 62.5043 91.5208C62.8127 91.5625 63.2543 91.575 63.8293 91.575H75.971C80.271 91.575 83.946 90.05 87.0002 86.9958C90.0502 83.9458 91.5793 80.2667 91.5793 75.9667V23.9417C91.5793 19.6417 90.0502 15.9667 86.996 12.9125H87.0002Z" fill="#E8C084"/>
</svg>
