<svg width="50" height="50" viewBox="0 0 50 50" fill="current" xmlns="http://www.w3.org/2000/svg">
<g clip-path="url(#clip0_51_305)">
<path d="M11.3502 50V16.265H0.632116V50H11.3502ZM5.99253 11.6563C9.7301 11.6563 12.0566 9.06589 12.0566 5.82869C11.9869 2.51849 9.73025 -6.10352e-05 6.06346 -6.10352e-05C2.39724 -6.10352e-05 -0.000244141 2.51854 -0.000244141 5.82869C-0.000244141 9.06604 2.32564 11.6563 5.92256 11.6563H5.99219H5.99253ZM17.2826 50H28.0006V31.1607C28.0006 30.1525 28.0703 29.1453 28.3533 28.4245C29.1281 26.4101 30.8917 24.3237 33.8525 24.3237C37.7309 24.3237 39.2825 27.4173 39.2825 31.9523V49.9997H49.9998V30.6564C49.9998 20.2944 44.7121 15.473 37.6603 15.473C31.8783 15.473 29.3397 18.8541 27.9293 21.157H28.0009V16.2643H17.2828C17.4235 19.4298 17.2828 49.9993 17.2828 49.9993L17.2826 50Z" fill="current"/>
</g>
<defs>
<clipPath id="clip0_51_305">
<rect width="50" height="50" fill="current"/>
</clipPath>
</defs>
</svg>
