<svg width="50" height="50" viewBox="0 0 50 50" fill="none" xmlns="http://www.w3.org/2000/svg">
<path d="M44.9027 8.3333C44.7134 8.31379 44.5226 8.31379 44.3332 8.3333H5.44436C5.19512 8.33714 4.94753 8.37451 4.70825 8.44441L24.7777 28.4305L44.9027 8.3333Z" fill="#30475E"/>
<path d="M46.9582 10.2639L26.736 30.4028C26.2155 30.9202 25.5115 31.2106 24.7776 31.2106C24.0438 31.2106 23.3398 30.9202 22.8193 30.4028L2.77764 10.4167C2.71603 10.6431 2.68336 10.8765 2.68042 11.1111V38.8889C2.68042 39.6256 2.97308 40.3322 3.49401 40.8531C4.01495 41.374 4.72149 41.6667 5.4582 41.6667H44.3471C45.0838 41.6667 45.7903 41.374 46.3113 40.8531C46.8322 40.3322 47.1249 39.6256 47.1249 38.8889V11.1111C47.1138 10.8218 47.0576 10.5359 46.9582 10.2639V10.2639ZM7.36098 38.8889H5.43042V36.9028L15.5276 26.8889L17.486 28.8473L7.36098 38.8889ZM44.3193 38.8889H42.3749L32.2499 28.8473L34.2082 26.8889L44.3054 36.9028L44.3193 38.8889Z" fill="#30475E"/>
</svg>
