<svg width="50" height="50" viewBox="0 0 50 50" fill="none" xmlns="http://www.w3.org/2000/svg">
<g filter="url(#filter0_i_19:290)">
<path d="M34.1796 11.8251C33.9359 11.8251 33.7734 11.8579 33.6093 11.8985V11.9235H33.6343C33.7484 12.1345 33.9359 12.2985 34.0812 12.4938C34.1953 12.7142 34.2921 12.9407 34.3984 13.161L34.4312 13.1282C34.6265 12.9892 34.7249 12.7704 34.7249 12.436C34.6437 12.3376 34.6265 12.2329 34.5546 12.1423C34.4734 12.0032 34.2937 11.9313 34.1796 11.8251ZM12.0203 39.3142H10.0921C10.0337 36.2452 9.8466 33.18 9.53119 30.1267H9.51557L6.57807 39.3142H5.10463L2.19057 30.1267H2.16557C1.93911 33.1845 1.80363 36.2483 1.75932 39.3142H0.00150299C0.0966845 35.4613 0.381927 31.6155 0.856191 27.7907H3.24838L6.03119 36.2548H6.04682L8.85463 27.7907H11.1328C11.6374 31.9907 11.939 35.8313 12.0281 39.3142H12.0203ZM20.3859 30.811C19.6046 35.0751 18.5624 38.1767 17.2859 40.1048C16.2765 41.5938 15.1781 42.3423 13.9812 42.3423C13.664 42.3423 13.2734 42.2438 12.8015 42.0485V41.0235C13.0374 41.0563 13.3062 41.0798 13.6078 41.0798C14.1687 41.0798 14.6171 40.9173 14.9593 40.6157C15.3656 40.2407 15.5703 39.8188 15.5703 39.3548C15.5703 39.0298 15.4156 38.3782 15.0906 37.386L12.9828 30.811H14.8796L16.3937 35.7267C16.7359 36.8501 16.8828 37.6235 16.8171 38.0704C17.6546 35.8563 18.2328 33.4313 18.5593 30.811H20.3859ZM46.0687 39.3142H40.5843V27.7907H42.4312V37.8985H46.0687V39.3142ZM39.1515 39.5923L37.0359 38.5501C37.2234 38.3954 37.4015 38.2251 37.5656 38.0298C38.4687 36.9798 38.9171 35.4095 38.9171 33.3423C38.9171 29.5251 37.4203 27.622 34.4249 27.622C32.9593 27.622 31.8124 28.1017 30.9906 29.0704C30.0953 30.1282 29.639 31.6907 29.639 33.7501C29.639 35.7767 30.0374 37.2579 30.8359 38.2095C31.5687 39.0563 32.6671 39.4876 34.1406 39.4876C34.6859 39.4876 35.1906 39.422 35.6468 39.2845L38.4062 40.8954L39.1624 39.5938L39.1515 39.5923ZM32.2921 37.0032C31.8203 36.2548 31.5921 35.0501 31.5921 33.3892C31.5921 30.4845 32.4718 29.036 34.2374 29.036C35.1578 29.036 35.8406 29.386 36.2718 30.0782C36.7359 30.8345 36.9718 32.0235 36.9718 33.6673C36.9718 36.5892 36.0843 38.0626 34.3265 38.0626C33.3984 38.0626 32.7234 37.7126 32.2843 37.0204L32.2921 37.0032ZM28.8406 36.1251C28.8406 37.1017 28.4828 37.9079 27.7578 38.5251C27.0421 39.1517 26.089 39.4688 24.8765 39.4688C23.7453 39.4688 22.6624 39.111 21.5968 38.3938L22.0937 37.4017C23.0046 37.8579 23.8265 38.086 24.5765 38.086C25.2687 38.086 25.814 37.9313 26.2046 37.6298C26.5953 37.3204 26.8312 36.8892 26.8312 36.3438C26.8312 35.6595 26.3515 35.0735 25.4796 34.586C24.6734 34.1392 23.0546 33.2188 23.0546 33.2188C22.1749 32.5767 21.7437 31.8923 21.7437 30.761C21.7437 29.8251 22.0687 29.0767 22.7203 28.5063C23.3796 27.9204 24.2171 27.636 25.2593 27.636C26.2962 27.627 27.3126 27.9244 28.1812 28.4907L27.7343 29.4829C27.0362 29.1755 26.2831 29.0123 25.5203 29.0032C24.9265 29.0032 24.4703 29.1501 24.1531 29.4345C23.8359 29.7188 23.6406 30.0767 23.6406 30.5251C23.6406 31.2095 24.1296 31.7954 25.0234 32.2985C25.8453 32.7454 27.4968 33.6907 27.4968 33.6907C28.3999 34.3251 28.8484 35.0095 28.8484 36.1235L28.8406 36.1251ZM48.3812 23.9267C47.2656 23.9017 46.4031 24.0157 45.6796 24.3251C45.4765 24.4063 45.1421 24.4063 45.1093 24.6673C45.2234 24.7813 45.239 24.961 45.3374 25.1142C45.5078 25.3907 45.7937 25.7657 46.0624 25.961C46.3562 26.1892 46.6484 26.4173 46.9499 26.6126C47.4953 26.947 48.1062 27.1423 48.6421 27.4751C48.9437 27.6704 49.2531 27.922 49.5531 28.1267C49.7078 28.2329 49.8046 28.4204 49.9999 28.4845V28.4438C49.9015 28.322 49.8781 28.1423 49.7796 27.997C49.6406 27.8579 49.5031 27.736 49.364 27.5985C48.9565 27.0575 48.4679 26.5827 47.9156 26.1907C47.4687 25.8892 46.4921 25.4657 46.3124 24.9532L46.2874 24.9204C46.589 24.8954 46.9468 24.7813 47.239 24.7001C47.7109 24.5782 48.1499 24.6017 48.639 24.4798C48.8634 24.4216 49.0859 24.3564 49.3062 24.2845V24.1626C49.0546 23.911 48.8671 23.5688 48.6062 23.3329C47.8872 22.7037 47.1197 22.1322 46.3109 21.6235C45.8718 21.3392 45.3187 21.1595 44.8546 20.9235C44.6921 20.8423 44.4078 20.8017 44.3171 20.6626C44.0656 20.3532 43.9187 19.9548 43.739 19.5876C43.3303 18.7932 42.9503 17.9844 42.5999 17.1626C42.3484 16.6173 42.2015 16.0798 41.8921 15.5751C40.4593 13.2063 38.8968 11.7751 36.5046 10.3673C35.9921 10.0735 35.3734 9.95166 34.7218 9.79697C34.3718 9.78135 34.0296 9.75635 33.6796 9.74072C33.4515 9.64229 33.2328 9.38291 33.0374 9.25166C32.2406 8.74697 30.189 7.66416 29.6109 9.09697C29.2359 10.0079 30.164 10.8954 30.4906 11.3517C30.7265 11.6767 31.0281 12.036 31.1984 12.3938C31.2968 12.6376 31.3203 12.8907 31.4187 13.1423C31.639 13.7532 31.8499 14.436 32.1437 15.0063C32.2984 15.3001 32.4609 15.6079 32.6562 15.8688C32.7703 16.0235 32.9656 16.0892 33.0062 16.3407C32.8109 16.6251 32.7953 17.0407 32.689 17.3829C32.1843 18.961 32.3796 20.9063 33.0874 22.0704C33.3156 22.4204 33.8437 23.186 34.5531 22.8923C35.1796 22.6407 35.0421 21.8501 35.2203 21.1501C35.2609 20.9798 35.2359 20.8735 35.3187 20.7595V20.7923C35.5218 21.1829 35.7171 21.5579 35.8968 21.9485C36.3203 22.6329 37.0765 23.3407 37.7031 23.8126C38.0374 24.0642 38.2968 24.497 38.7124 24.6501V24.6095H38.6796C38.5906 24.4876 38.4765 24.4298 38.3624 24.3329C38.0986 24.0715 37.8537 23.7916 37.6296 23.4954C37.0515 22.7142 36.5312 21.8517 36.0749 20.9642C35.8551 20.5257 35.6544 20.0778 35.4734 19.622C35.3921 19.4595 35.3921 19.2063 35.2531 19.1251C35.0421 19.4267 34.7328 19.686 34.5859 20.0688C34.3171 20.6626 34.2921 21.4032 34.1874 22.1688C34.139 22.1845 34.1624 22.1688 34.139 22.2017C33.6921 22.0876 33.5374 21.6313 33.3734 21.2407C32.9499 20.2485 32.8843 18.661 33.2437 17.522C33.3421 17.2282 33.7562 16.3095 33.5937 16.0329C33.5046 15.7642 33.2281 15.6095 33.0812 15.3985C32.8937 15.1376 32.7062 14.8048 32.5765 14.511C32.2421 13.7298 32.0796 12.8673 31.714 12.086C31.5515 11.7282 31.2578 11.3532 31.0218 11.0204C30.7531 10.6454 30.4609 10.3782 30.2562 9.9376C30.1828 9.78291 30.0859 9.53135 30.1999 9.36729C30.2249 9.25322 30.2812 9.2126 30.3953 9.17979C30.5749 9.0251 31.0953 9.22041 31.2749 9.30947C31.7874 9.5126 32.2187 9.70791 32.6499 10.0017C32.8453 10.1407 33.0562 10.4001 33.3093 10.4735H33.6031C34.0499 10.572 34.5468 10.4985 34.9624 10.6282C35.7031 10.8642 36.3703 11.2063 36.9718 11.5798C38.8115 12.7607 40.3075 14.4055 41.3093 16.3485C41.4796 16.6657 41.5531 16.9595 41.7078 17.2923C41.9921 17.9845 42.3593 18.6751 42.6515 19.3345C42.9437 19.9938 43.2218 20.661 43.6437 21.2063C43.8546 21.5001 44.6859 21.6532 45.0671 21.8001C45.3437 21.9298 45.7749 22.0438 46.0187 22.1907C46.4984 22.4845 46.9703 22.8173 47.4187 23.1423C47.6468 23.297 48.339 23.647 48.3796 23.9235L48.3812 23.9267Z" fill="black"/>
</g>
<defs>
<filter id="filter0_i_19:290" x="0" y="0" width="54" height="54" filterUnits="userSpaceOnUse" color-interpolation-filters="sRGB">
<feFlood flood-opacity="0" result="BackgroundImageFix"/>
<feBlend mode="normal" in="SourceGraphic" in2="BackgroundImageFix" result="shape"/>
<feColorMatrix in="SourceAlpha" type="matrix" values="0 0 0 0 0 0 0 0 0 0 0 0 0 0 0 0 0 0 127 0" result="hardAlpha"/>
<feOffset dx="4" dy="4"/>
<feGaussianBlur stdDeviation="2"/>
<feComposite in2="hardAlpha" operator="arithmetic" k2="-1" k3="1"/>
<feColorMatrix type="matrix" values="0 0 0 0 0.188235 0 0 0 0 0.278431 0 0 0 0 0.368627 0 0 0 1 0"/>
<feBlend mode="normal" in2="shape" result="effect1_innerShadow_19:290"/>
</filter>
</defs>
</svg>
