<svg width="50" height="31" viewBox="0 0 50 31" fill="none" xmlns="http://www.w3.org/2000/svg">
<g filter="url(#filter0_i_19:329)">
<path d="M24.7178 30.5756C24.5485 30.5756 24.3905 30.5305 24.2438 30.4515L22.7427 29.5599C22.5169 29.4357 22.6298 29.3905 22.6976 29.368C23.0023 29.2664 23.0587 29.2438 23.3747 29.0633C23.4086 29.0406 23.4538 29.052 23.4876 29.0745L24.6389 29.763C24.684 29.7856 24.7404 29.7856 24.7742 29.763L29.2777 27.1558C29.3228 27.1332 29.3454 27.088 29.3454 27.0317V21.8285C29.3454 21.772 29.3228 21.727 29.2777 21.7043L24.7742 19.1084C24.7291 19.0858 24.6727 19.0858 24.6389 19.1084L20.1355 21.7043C20.0903 21.7269 20.0677 21.7833 20.0677 21.8284V27.0316C20.0677 27.0768 20.0903 27.1331 20.1355 27.1558L21.3657 27.8668C22.0317 28.2054 22.4492 27.8104 22.4492 27.4154V22.2799C22.4492 22.2122 22.5057 22.1444 22.5847 22.1444H23.1603C23.228 22.1444 23.2957 22.2009 23.2957 22.2799V27.4154C23.2957 28.307 22.8104 28.8262 21.9639 28.8262C21.7043 28.8262 21.5012 28.8262 20.9255 28.544L19.7404 27.8668C19.447 27.6976 19.2664 27.3815 19.2664 27.0429V21.8398C19.2664 21.5012 19.447 21.1851 19.7404 21.0158L24.2438 18.4086C24.526 18.2506 24.9098 18.2506 25.1919 18.4086L29.6952 21.0158C29.9887 21.1851 30.1693 21.5012 30.1693 21.8398V27.0429C30.1693 27.3815 29.9887 27.6976 29.6952 27.8668L25.1919 30.474C25.0451 30.5418 24.8759 30.5756 24.7179 30.5756H24.7178ZM26.1061 26.9978C24.131 26.9978 23.7246 26.0948 23.7246 25.3274C23.7246 25.2596 23.7811 25.1919 23.8601 25.1919H24.447C24.5147 25.1919 24.5711 25.237 24.5711 25.3048C24.6614 25.9029 24.921 26.1964 26.1174 26.1964C27.0654 26.1964 27.4719 25.982 27.4719 25.474C27.4719 25.1806 27.3589 24.9662 25.8804 24.8195C24.6501 24.6952 23.8826 24.4244 23.8826 23.4425C23.8826 22.5282 24.6502 21.9864 25.9368 21.9864C27.3815 21.9864 28.0926 22.4831 28.1829 23.5665C28.1829 23.6005 28.1716 23.6343 28.149 23.6682C28.1264 23.6907 28.0926 23.7133 28.0587 23.7133H27.4718C27.4153 23.7133 27.3589 23.6682 27.3477 23.6117C27.2122 22.991 26.8623 22.7878 25.9368 22.7878C24.8984 22.7878 24.7742 23.149 24.7742 23.4198C24.7742 23.7472 24.921 23.8487 26.3205 24.0293C27.7088 24.21 28.3635 24.4695 28.3635 25.4402C28.3522 26.4334 27.5396 26.9978 26.1061 26.9978Z" fill="#539E43"/>
<path d="M10.7449 10.2258C10.7449 10.0227 10.6321 9.83069 10.4515 9.72913L5.66594 6.97522C5.58684 6.93001 5.49661 6.90745 5.40637 6.89612H5.36116C5.27092 6.89612 5.18059 6.93001 5.10159 6.97522L0.31604 9.72913C0.135376 9.83069 0.022583 10.0226 0.022583 10.2258L0.0339111 17.6298C0.0339111 17.7314 0.0903564 17.8329 0.180591 17.8781C0.270923 17.9346 0.383716 17.9346 0.462817 17.8781L3.30706 16.2529C3.48762 16.1513 3.60051 15.9594 3.60051 15.7563V12.2912C3.60051 12.0881 3.71331 11.8962 3.89397 11.7947L5.10159 11.0948C5.19192 11.0384 5.29348 11.0157 5.39504 11.0157C5.49661 11.0157 5.59817 11.0384 5.67727 11.0948L6.88489 11.7947C7.06555 11.8962 7.17834 12.088 7.17834 12.2912V15.7563C7.17834 15.9594 7.29124 16.1513 7.4718 16.2529L10.316 17.8781C10.4064 17.9346 10.5192 17.9346 10.6095 17.8781C10.6998 17.8329 10.7563 17.7314 10.7563 17.6298L10.7449 10.2258Z" fill="#333333"/>
<path d="M33.7472 0.0339111C33.657 -0.0113037 33.5441 -0.0113037 33.465 0.0339111C33.3748 0.0903564 33.3183 0.180591 33.3183 0.282153V7.61858C33.3183 7.68625 33.2845 7.75393 33.2168 7.79914C33.1491 7.83293 33.0813 7.83293 33.0136 7.79914L31.8172 7.11067C31.7295 7.06073 31.6303 7.03446 31.5294 7.03446C31.4285 7.03446 31.3293 7.06073 31.2416 7.11067L26.456 9.8759C26.2754 9.97746 26.1626 10.1694 26.1626 10.3725V15.8916C26.1626 16.0947 26.2754 16.2867 26.456 16.3883L31.2416 19.1535C31.3293 19.2035 31.4285 19.2297 31.5294 19.2297C31.6303 19.2297 31.7295 19.2035 31.8172 19.1535L36.6028 16.3883C36.7834 16.2867 36.8962 16.0948 36.8962 15.8916V2.13323C36.8962 1.91877 36.7834 1.72698 36.6028 1.62532L33.7473 0.0339111H33.7472ZM33.3071 14.0745C33.3071 14.131 33.2845 14.1761 33.2393 14.1987L31.6028 15.1467C31.5799 15.1579 31.5548 15.1636 31.5294 15.1636C31.504 15.1636 31.4789 15.1579 31.456 15.1467L29.8195 14.1987C29.7743 14.1761 29.7517 14.1196 29.7517 14.0745V12.1783C29.7517 12.1219 29.7743 12.0768 29.8195 12.0542L31.456 11.1061C31.4789 11.0949 31.504 11.0891 31.5294 11.0891C31.5548 11.0891 31.5799 11.0949 31.6028 11.1061L33.2393 12.0542C33.2845 12.0767 33.3071 12.1332 33.3071 12.1783V14.0745Z" fill="#333333"/>
<path d="M49.6727 12.1332C49.8533 12.0316 49.9549 11.8397 49.9549 11.6365V10.2935C49.9549 10.0903 49.842 9.89844 49.6727 9.79688L44.921 7.04297C44.8333 6.99305 44.7341 6.9668 44.6332 6.9668C44.5323 6.9668 44.4331 6.99305 44.3454 7.04297L39.5599 9.80811C39.3792 9.90967 39.2664 10.1016 39.2664 10.3048V15.8239C39.2664 16.0271 39.3792 16.2189 39.5599 16.3205L44.3116 19.0293C44.4922 19.1309 44.7066 19.1309 44.8759 19.0293L47.7539 17.4268C47.8443 17.3815 47.9007 17.28 47.9007 17.1784C47.9007 17.0769 47.8443 16.9753 47.7539 16.9301L42.9458 14.1648C42.8556 14.1085 42.7991 14.0182 42.7991 13.9166V12.1897C42.7991 12.0882 42.8556 11.9866 42.9458 11.9414L44.447 11.0836C44.4909 11.0559 44.5418 11.0413 44.5937 11.0413C44.6456 11.0413 44.6965 11.0559 44.7405 11.0836L46.2415 11.9414C46.3319 11.9979 46.3883 12.0881 46.3883 12.1897V13.5441C46.3883 13.6457 46.4448 13.7473 46.535 13.7924C46.6253 13.8488 46.7381 13.8488 46.8284 13.7924L49.6727 12.1332Z" fill="#333333"/>
<path d="M44.5599 11.8737C44.5766 11.8626 44.5963 11.8568 44.6163 11.8568C44.6364 11.8568 44.656 11.8626 44.6727 11.8737L45.587 12.4041C45.6208 12.4266 45.6434 12.4605 45.6434 12.5057V13.5666C45.6434 13.6117 45.6208 13.6456 45.587 13.6682L44.6727 14.1987C44.656 14.2097 44.6364 14.2156 44.6163 14.2156C44.5963 14.2156 44.5766 14.2097 44.5599 14.1987L43.6456 13.6682C43.6118 13.6456 43.5892 13.6117 43.5892 13.5666V12.5057C43.5892 12.4605 43.6118 12.4266 43.6456 12.4041L44.5599 11.8737Z" fill="#539E43"/>
<mask id="mask0_19:329" style="mask-type:alpha" maskUnits="userSpaceOnUse" x="13" y="6" width="11" height="14">
<path d="M18.7472 7.06555C18.6595 7.01563 18.5603 6.98938 18.4594 6.98938C18.3585 6.98938 18.2593 7.01563 18.1716 7.06555L13.42 9.80804C13.2393 9.9096 13.1377 10.1015 13.1377 10.3046V15.8013C13.1377 16.0044 13.2506 16.1963 13.42 16.2979L18.1716 19.0406C18.2593 19.0905 18.3585 19.1167 18.4594 19.1167C18.5603 19.1167 18.6595 19.0905 18.7472 19.0406L23.499 16.2979C23.6795 16.1963 23.7812 16.0044 23.7812 15.8013V10.3047C23.7812 10.1016 23.6682 9.9097 23.499 9.80813L18.7472 7.06555Z" fill="white"/>
</mask>
<g mask="url(#mask0_19:329)">
<path d="M18.7472 7.06555C18.6595 7.01563 18.5603 6.98938 18.4594 6.98938C18.3585 6.98938 18.2593 7.01563 18.1716 7.06555L13.42 9.80804C13.2393 9.9096 13.1377 10.1015 13.1377 10.3046V15.8013C13.1377 16.0044 13.2506 16.1963 13.42 16.2979L18.1716 19.0406C18.2593 19.0905 18.3585 19.1167 18.4594 19.1167C18.5603 19.1167 18.6595 19.0905 18.7472 19.0406L23.499 16.2979C23.6795 16.1963 23.7812 16.0044 23.7812 15.8013V10.3047C23.7812 10.1016 23.6682 9.9097 23.499 9.80813L18.7472 7.06555Z" fill="url(#paint0_linear_19:329)"/>
<path d="M23.5102 9.80812L18.736 7.06554C18.6891 7.04185 18.6399 7.02294 18.5893 7.00909L13.2393 16.1739C13.2837 16.228 13.3372 16.2739 13.3975 16.3094L18.1717 19.0521C18.3071 19.1311 18.4651 19.1536 18.6118 19.1084L23.6345 9.92111C23.6006 9.87599 23.5554 9.842 23.5102 9.80821V9.80812Z" fill="url(#paint1_linear_19:329)"/>
<path fill-rule="evenodd" clip-rule="evenodd" d="M23.5216 16.298C23.657 16.219 23.7586 16.0836 23.8038 15.9369L18.5666 6.99782C18.4312 6.97526 18.2844 6.98649 18.1604 7.0655L13.4199 9.79694L18.5327 19.1197C18.6071 19.1075 18.6793 19.0847 18.7472 19.052L23.5215 16.2981L23.5216 16.298Z" fill="url(#paint2_linear_19:329)"/>
<path fill-rule="evenodd" clip-rule="evenodd" d="M23.5216 16.298L18.7586 19.0407C18.6913 19.075 18.6189 19.0978 18.5441 19.1084L18.6344 19.2777L23.9166 16.2191V16.1513L23.7811 15.9255C23.7586 16.0835 23.657 16.219 23.5216 16.298Z" fill="url(#paint3_linear_19:329)"/>
<path fill-rule="evenodd" clip-rule="evenodd" d="M23.5216 16.298L18.7586 19.0407C18.6913 19.075 18.6189 19.0978 18.5441 19.1084L18.6344 19.2777L23.9166 16.2191V16.1513L23.7811 15.9255C23.7586 16.0835 23.657 16.219 23.5216 16.298Z" fill="url(#paint4_linear_19:329)"/>
</g>
</g>
<defs>
<filter id="filter0_i_19:329" x="0" y="0" width="54" height="34.6641" filterUnits="userSpaceOnUse" color-interpolation-filters="sRGB">
<feFlood flood-opacity="0" result="BackgroundImageFix"/>
<feBlend mode="normal" in="SourceGraphic" in2="BackgroundImageFix" result="shape"/>
<feColorMatrix in="SourceAlpha" type="matrix" values="0 0 0 0 0 0 0 0 0 0 0 0 0 0 0 0 0 0 127 0" result="hardAlpha"/>
<feOffset dx="4" dy="4"/>
<feGaussianBlur stdDeviation="2"/>
<feComposite in2="hardAlpha" operator="arithmetic" k2="-1" k3="1"/>
<feColorMatrix type="matrix" values="0 0 0 0 0.188235 0 0 0 0 0.278431 0 0 0 0 0.368627 0 0 0 1 0"/>
<feBlend mode="normal" in2="shape" result="effect1_innerShadow_19:329"/>
</filter>
<linearGradient id="paint0_linear_19:329" x1="20.3953" y1="9.11009" x2="15.187" y2="17.2938" gradientUnits="userSpaceOnUse">
<stop stop-color="#41873F"/>
<stop offset="0.3288" stop-color="#418B3D"/>
<stop offset="0.6352" stop-color="#419637"/>
<stop offset="0.9319" stop-color="#3FA92D"/>
<stop offset="1" stop-color="#3FAE2A"/>
</linearGradient>
<linearGradient id="paint1_linear_19:329" x1="17.738" y1="13.6969" x2="30.7819" y2="6.61009" gradientUnits="userSpaceOnUse">
<stop offset="0.1376" stop-color="#41873F"/>
<stop offset="0.4032" stop-color="#54A044"/>
<stop offset="0.7136" stop-color="#66B848"/>
<stop offset="0.9081" stop-color="#6CC04A"/>
</linearGradient>
<linearGradient id="paint2_linear_19:329" x1="12.9642" y1="13.0533" x2="23.9595" y2="13.0533" gradientUnits="userSpaceOnUse">
<stop offset="0.09192" stop-color="#6CC04A"/>
<stop offset="0.2864" stop-color="#66B848"/>
<stop offset="0.5968" stop-color="#54A044"/>
<stop offset="0.8624" stop-color="#41873F"/>
</linearGradient>
<linearGradient id="paint3_linear_19:329" x1="12.9642" y1="17.6108" x2="23.9594" y2="17.6108" gradientUnits="userSpaceOnUse">
<stop offset="0.09192" stop-color="#6CC04A"/>
<stop offset="0.2864" stop-color="#66B848"/>
<stop offset="0.5968" stop-color="#54A044"/>
<stop offset="0.8624" stop-color="#41873F"/>
</linearGradient>
<linearGradient id="paint4_linear_19:329" x1="25.5612" y1="8.85018" x2="22.7757" y2="23.4462" gradientUnits="userSpaceOnUse">
<stop stop-color="#41873F"/>
<stop offset="0.3288" stop-color="#418B3D"/>
<stop offset="0.6352" stop-color="#419637"/>
<stop offset="0.9319" stop-color="#3FA92D"/>
<stop offset="1" stop-color="#3FAE2A"/>
</linearGradient>
</defs>
</svg>
