<svg width="50" height="50" viewBox="0 0 50 50" fill="none" xmlns="http://www.w3.org/2000/svg">
<path d="M34.7222 5.55554H15.2778C14.5411 5.55554 13.8345 5.8482 13.3136 6.36913C12.7927 6.89007 12.5 7.59661 12.5 8.33332V41.6667C12.5 42.4034 12.7927 43.1099 13.3136 43.6308C13.8345 44.1518 14.5411 44.4444 15.2778 44.4444H34.7222C35.4589 44.4444 36.1655 44.1518 36.6864 43.6308C37.2073 43.1099 37.5 42.4034 37.5 41.6667V8.33332C37.5 7.59661 37.2073 6.89007 36.6864 6.36913C36.1655 5.8482 35.4589 5.55554 34.7222 5.55554V5.55554ZM26.3889 41.6667H23.6111V38.8889H26.3889V41.6667ZM15.2778 36.1111V8.33332H34.7222V36.1111H15.2778Z" fill="#30475E"/>
</svg>
