<svg width="50" height="50" viewBox="0 0 50 50" fill="current" xmlns="http://www.w3.org/2000/svg">
<path d="M24.9999 4.16663C20.6084 4.16641 16.3942 5.89946 13.2733 8.98911C10.1525 12.0788 8.37717 16.2753 8.33325 20.6666C8.33325 32.0833 23.0208 44.7916 23.6458 45.3333C24.0231 45.6561 24.5033 45.8334 24.9999 45.8334C25.4965 45.8334 25.9767 45.6561 26.3541 45.3333C27.0832 44.7916 41.6666 32.0833 41.6666 20.6666C41.6227 16.2753 39.8474 12.0788 36.7265 8.98911C33.6056 5.89946 29.3915 4.16641 24.9999 4.16663ZM24.9999 27.0833C23.5578 27.0833 22.148 26.6556 20.9489 25.8544C19.7498 25.0532 18.8152 23.9144 18.2633 22.582C17.7114 21.2496 17.567 19.7835 17.8484 18.3691C18.1297 16.9546 18.8242 15.6554 19.8439 14.6356C20.8637 13.6159 22.1629 12.9214 23.5774 12.6401C24.9918 12.3587 26.4579 12.5031 27.7903 13.055C29.1227 13.6069 30.2615 14.5415 31.0627 15.7406C31.8639 16.9397 32.2916 18.3495 32.2916 19.7916C32.2916 21.7255 31.5234 23.5802 30.1559 24.9476C28.7884 26.3151 26.9338 27.0833 24.9999 27.0833V27.0833Z" fill="current"/>
</svg>
