<svg width="40" height="36" viewBox="0 0 40 36" fill="none" xmlns="http://www.w3.org/2000/svg">
<g filter="url(#filter0_i_19:281)">
<path d="M32.888 24.465C32.4623 24.6111 32.033 24.7464 31.6005 24.8708C31.6731 25.1677 31.74 25.461 31.7994 25.7491C32.7741 30.4805 32.1369 34.2922 29.9605 35.5472C27.8737 36.7503 24.4611 35.4958 21.0145 32.4963C20.6749 32.2001 20.3427 31.8955 20.0184 31.5825C19.8013 31.7906 19.5804 31.9947 19.3558 32.1946C15.7436 35.4017 12.123 36.7535 9.94891 35.4949C7.86406 34.288 7.24672 30.7047 8.12422 26.2207C8.21152 25.7766 8.31009 25.3347 8.41984 24.8957C7.90734 24.75 7.41281 24.595 6.93953 24.43C2.70453 22.9535 0 20.6396 0 18.2394C0 15.7605 2.90344 13.2741 7.31438 11.7664C7.67198 11.6447 8.03256 11.5319 8.39578 11.4282C8.27782 10.9552 8.17309 10.4791 8.08172 10.0003C7.24516 5.59409 7.89844 2.09549 9.97766 0.896275C12.1252 -0.342163 15.7295 0.930653 19.2391 3.99862C19.5236 4.24804 19.802 4.50453 20.0738 4.76784C20.4249 4.429 20.7855 4.10002 21.155 3.78128C24.5547 0.855965 27.9122 -0.325287 29.9894 0.877216C32.1348 2.11925 32.8322 5.87768 31.9269 10.4503C31.8556 10.8086 31.7756 11.165 31.687 11.5194C31.9402 11.5944 32.1886 11.6716 32.4308 11.7519C37.0164 13.2711 40 15.7274 40 18.2394C40 20.6483 37.2081 22.9778 32.888 24.465ZM31.8934 13.3738C31.6747 13.3014 31.4503 13.2316 31.2216 13.1636C30.7153 14.7663 30.0322 16.4703 29.1961 18.2311C29.9939 19.9499 30.6508 21.6322 31.1428 23.2244C31.552 23.106 31.9491 22.9811 32.3319 22.8494C36.0334 21.575 38.2913 19.6911 38.2913 18.2394C38.2913 16.6932 35.8528 14.6858 31.8934 13.3738ZM30.2506 10.1185C30.6509 8.09659 30.708 6.26846 30.4428 4.83924C30.2047 3.55503 29.7256 2.69893 29.1331 2.35596C27.8727 1.62627 25.1769 2.57471 22.2695 5.07659C21.9258 5.37294 21.5904 5.67879 21.2638 5.99378C22.3909 7.22643 23.5173 8.6594 24.6167 10.251C26.5505 10.4225 28.3773 10.7031 30.0341 11.0861C30.1156 10.7569 30.1881 10.4341 30.2506 10.1185ZM13.6369 2.48206C12.4053 2.04721 11.4244 2.03471 10.8314 2.37659C9.56969 3.10424 9.04516 5.91346 9.76062 9.68159C9.84567 10.1269 9.94306 10.5697 10.0527 11.0096C11.6911 10.6471 13.5047 10.3864 15.443 10.2292C16.5498 8.6719 17.7087 7.24049 18.8767 5.98706C18.6285 5.74688 18.3744 5.51285 18.1147 5.28518C16.5627 3.92862 15.0075 2.96612 13.6369 2.48206ZM7.86719 13.3833C5.91672 14.05 4.30594 14.9164 3.20187 15.8619C2.20969 16.7114 1.70891 17.555 1.70891 18.2394C1.70891 19.696 3.88031 21.5538 7.50203 22.8164C7.94156 22.9696 8.40156 23.1141 8.87891 23.2497C9.37953 21.6216 10.0361 19.9192 10.8284 18.1978C10.0258 16.451 9.35984 14.7214 8.85437 13.0741C8.52283 13.1691 8.19367 13.2722 7.86719 13.3833ZM9.80125 26.5489C9.04953 30.3907 9.54875 33.2886 10.8052 34.016C12.1433 34.7907 15.1023 33.6861 18.2213 30.9167C18.4246 30.7357 18.6247 30.5511 18.8214 30.3628C17.6592 29.1149 16.5109 27.6941 15.4139 26.146C13.5327 25.9716 11.7319 25.6916 10.0763 25.3164C9.97425 25.7248 9.88255 26.1359 9.80125 26.5489ZM27.0555 22.2883C26.6644 22.9638 26.2589 23.6308 25.8391 24.2888C27.1153 24.1274 28.3381 23.9132 29.4864 23.6513C29.1417 22.5463 28.712 21.3911 28.2063 20.2067C27.8366 20.9082 27.4529 21.6022 27.0555 22.2883ZM20.0192 29.1416C20.8073 28.2877 21.5967 27.3344 22.3731 26.3C20.7981 26.3744 19.2205 26.3747 17.6455 26.301C18.4227 27.3258 19.2188 28.2778 20.0192 29.1416ZM12.9378 22.2766C12.5454 21.596 12.1689 20.9063 11.8086 20.2082C11.3111 21.3883 10.8853 22.5488 10.5377 23.6694C11.6789 23.9247 12.8959 24.1335 14.1641 24.2919C13.7396 23.6299 13.3307 22.9578 12.9378 22.2766ZM14.2005 12.0653C12.8903 12.2116 11.655 12.4096 10.5141 12.658C10.8672 13.7986 11.3023 14.9838 11.8106 16.1892C12.1723 15.4906 12.5504 14.8005 12.9445 14.1196C13.3498 13.4196 13.7695 12.7339 14.2005 12.0653ZM20.0664 7.2169C19.2564 8.09065 18.4486 9.05737 17.6597 10.0971C18.4256 10.0671 19.2064 10.0517 20 10.0517C20.8153 10.0517 21.6213 10.07 22.4145 10.1053C21.6356 9.0469 20.8492 8.07878 20.0664 7.2169ZM28.2223 16.2508C28.757 15.0321 29.2077 13.8532 29.5655 12.7321C28.4058 12.4674 27.1536 12.2542 25.8342 12.096C26.257 12.7662 26.6664 13.4448 27.0622 14.1313C27.4646 14.8291 27.8514 15.5358 28.2223 16.2508ZM25.582 14.985C24.9761 13.9325 24.3362 12.8999 23.6631 11.8889C22.444 11.8026 21.2222 11.7597 20 11.7603C18.7552 11.7603 17.5444 11.7991 16.3784 11.8747C15.6878 12.8833 15.0357 13.9177 14.4233 14.9757C13.8138 16.028 13.2446 17.1031 12.7167 18.1986C13.2433 19.2944 13.8109 20.37 14.4183 21.4232C15.0255 22.4766 15.6723 23.5064 16.3577 24.5107C17.5472 24.6007 18.767 24.6475 19.9998 24.6475C21.2383 24.6475 22.4598 24.6002 23.6491 24.5096C24.3275 23.5068 24.9704 22.4803 25.5764 21.4322C26.1858 20.3814 26.7609 19.311 27.3008 18.2228C26.7665 17.1235 26.1932 16.0436 25.582 14.985ZM29.107 34.0669C30.4464 33.2944 30.9673 30.1792 30.1258 26.0941C30.072 25.8335 30.0117 25.568 29.9461 25.2988C28.2864 25.6819 26.4844 25.9667 24.5977 26.1438C23.4986 27.7089 22.3597 29.1319 21.2164 30.3638C21.516 30.6526 21.8228 30.9339 22.1364 31.2075C25.0895 33.7774 27.8495 34.7921 29.107 34.0669ZM20 21.8113C21.9727 21.8113 23.5719 20.2121 23.5719 18.2394C23.5719 16.2667 21.9727 14.6675 20 14.6675C18.0273 14.6675 16.4281 16.2667 16.4281 18.2394C16.4281 20.2121 18.0273 21.8113 20 21.8113Z" fill="#00D8FF"/>
</g>
<defs>
<filter id="filter0_i_19:281" x="0" y="0.411438" width="41" height="36.5886" filterUnits="userSpaceOnUse" color-interpolation-filters="sRGB">
<feFlood flood-opacity="0" result="BackgroundImageFix"/>
<feBlend mode="normal" in="SourceGraphic" in2="BackgroundImageFix" result="shape"/>
<feColorMatrix in="SourceAlpha" type="matrix" values="0 0 0 0 0 0 0 0 0 0 0 0 0 0 0 0 0 0 127 0" result="hardAlpha"/>
<feOffset dx="1" dy="1"/>
<feGaussianBlur stdDeviation="2"/>
<feComposite in2="hardAlpha" operator="arithmetic" k2="-1" k3="1"/>
<feColorMatrix type="matrix" values="0 0 0 0 0.133333 0 0 0 0 0.156863 0 0 0 0 0.192157 0 0 0 1 0"/>
<feBlend mode="normal" in2="shape" result="effect1_innerShadow_19:281"/>
</filter>
</defs>
</svg>
