<svg width="100" height="100" viewBox="0 0 100 100" fill="current" xmlns="http://www.w3.org/2000/svg">
<path d="M37.2917 55.8333H27.4167C26.4102 52.0096 26.4102 47.9904 27.4167 44.1667H37.2917C37.0348 46.1009 36.8956 48.0489 36.875 50C36.8956 51.9511 37.0348 53.8991 37.2917 55.8333ZM29.8333 38.3333H38.3333C39.3054 34.7342 40.6749 31.2545 42.4167 27.9583C37.1014 29.7738 32.6286 33.4616 29.8333 38.3333ZM70.1667 38.3333C67.3494 33.4638 62.8649 29.7785 57.5417 27.9583C59.3074 31.2387 60.6647 34.723 61.5833 38.3333H70.1667ZM50 73.2083C52.4759 69.6901 54.3618 65.7917 55.5833 61.6667H44.4167C45.6382 65.7917 47.524 69.6901 50 73.2083ZM50 26.75C47.5219 30.2821 45.6361 34.1945 44.4167 38.3333H55.5833C54.3639 34.1945 52.4781 30.2821 50 26.75ZM29.8333 61.6667C32.6462 66.5235 37.1127 70.2062 42.4167 72.0417C40.6749 68.7455 39.3054 65.2658 38.3333 61.6667H29.8333ZM87.5 20.8333V79.1667C87.5 81.3768 86.622 83.4964 85.0592 85.0592C83.4964 86.622 81.3768 87.5 79.1667 87.5H20.8333C18.6232 87.5 16.5036 86.622 14.9408 85.0592C13.378 83.4964 12.5 81.3768 12.5 79.1667V20.8333C12.5 18.6232 13.378 16.5036 14.9408 14.9408C16.5036 13.378 18.6232 12.5 20.8333 12.5H79.1667C81.3768 12.5 83.4964 13.378 85.0592 14.9408C86.622 16.5036 87.5 18.6232 87.5 20.8333ZM79.1667 50C79.1667 44.2314 77.4561 38.5923 74.2512 33.7959C71.0463 28.9994 66.4911 25.2611 61.1616 23.0535C55.8321 20.846 49.9676 20.2684 44.3099 21.3938C38.6521 22.5192 33.4551 25.297 29.3761 29.3761C25.297 33.4551 22.5192 38.6521 21.3938 44.3099C20.2684 49.9676 20.846 55.8321 23.0535 61.1616C25.2611 66.4911 28.9994 71.0463 33.7959 74.2512C38.5923 77.4561 44.2314 79.1667 50 79.1667C57.7355 79.1667 65.1541 76.0938 70.6239 70.6239C76.0938 65.1541 79.1667 57.7355 79.1667 50ZM63.125 50C63.1044 51.9511 62.9652 53.8991 62.7083 55.8333H72.5833C73.5898 52.0096 73.5898 47.9904 72.5833 44.1667H62.7083C62.9652 46.1009 63.1044 48.0489 63.125 50ZM57.5417 72.0417C62.8593 70.2115 67.3407 66.5288 70.1667 61.6667H61.5833C60.6647 65.277 59.3074 68.7613 57.5417 72.0417ZM43.1667 44.1667C42.5447 48.0307 42.5447 51.9693 43.1667 55.8333H56.8333C57.1186 53.9016 57.2718 51.9526 57.2917 50C57.2729 48.0473 57.1198 46.0983 56.8333 44.1667H43.1667Z"/>
</svg>
